<?xml version="1.0" encoding="UTF-8" standalone="no"?>
<!-- Created with Inkscape (http://www.inkscape.org/) -->

<svg
   width="88.840225mm"
   height="51.319462mm"
   viewBox="0 0 88.840225 51.319462"
   version="1.1"
   id="svg1"
   inkscape:version="1.3 (0e150ed6c4, 2023-07-21)"
   sodipodi:docname="logo-daris.svg"
   xmlns:inkscape="http://www.inkscape.org/namespaces/inkscape"
   xmlns:sodipodi="http://sodipodi.sourceforge.net/DTD/sodipodi-0.dtd"
   xmlns:xlink="http://www.w3.org/1999/xlink"
   xmlns="http://www.w3.org/2000/svg"
   xmlns:svg="http://www.w3.org/2000/svg">
  <sodipodi:namedview
     id="namedview1"
     pagecolor="#ffffff"
     bordercolor="#000000"
     borderopacity="0.25"
     inkscape:showpageshadow="2"
     inkscape:pageopacity="0.0"
     inkscape:pagecheckerboard="0"
     inkscape:deskcolor="#d1d1d1"
     inkscape:document-units="mm"
     showguides="true"
     inkscape:zoom="1"
     inkscape:cx="438.5"
     inkscape:cy="844.5"
     inkscape:window-width="1920"
     inkscape:window-height="1009"
     inkscape:window-x="1358"
     inkscape:window-y="-8"
     inkscape:window-maximized="1"
     inkscape:current-layer="layer1">
    <sodipodi:guide
       position="174.8272,301.01768"
       orientation="1,0"
       id="guide35"
       inkscape:locked="false" />
  </sodipodi:namedview>
  <defs
     id="defs1">
    <linearGradient
       id="linearGradient104"
       inkscape:collect="always">
      <stop
         style="stop-color:#05a0ff;stop-opacity:1;"
         offset="0"
         id="stop103" />
      <stop
         style="stop-color:#0066ff;stop-opacity:0;"
         offset="1"
         id="stop104" />
    </linearGradient>
    <linearGradient
       id="linearGradient101"
       inkscape:collect="always">
      <stop
         style="stop-color:#05a0ff;stop-opacity:1;"
         offset="0"
         id="stop100" />
      <stop
         style="stop-color:#0066ff;stop-opacity:0;"
         offset="1"
         id="stop101" />
    </linearGradient>
    <linearGradient
       id="linearGradient95"
       inkscape:collect="always">
      <stop
         style="stop-color:#05a0ff;stop-opacity:1;"
         offset="0"
         id="stop95" />
      <stop
         style="stop-color:#0066ff;stop-opacity:0;"
         offset="1"
         id="stop96" />
    </linearGradient>
    <linearGradient
       inkscape:collect="always"
       xlink:href="#linearGradient101"
       id="linearGradient96"
       x1="27.51181"
       y1="218.70093"
       x2="34.966385"
       y2="225.83942"
       gradientUnits="userSpaceOnUse"
       gradientTransform="translate(28.285262,9.1673448)" />
    <linearGradient
       inkscape:collect="always"
       xlink:href="#linearGradient104"
       id="linearGradient97"
       gradientUnits="userSpaceOnUse"
       x1="27.51181"
       y1="218.70093"
       x2="34.966385"
       y2="225.83942"
       gradientTransform="matrix(0.59880464,0,0,0.59880464,48.114341,104.25562)" />
    <linearGradient
       inkscape:collect="always"
       xlink:href="#linearGradient95"
       id="linearGradient98"
       gradientUnits="userSpaceOnUse"
       gradientTransform="matrix(0.40322165,0,0,0.40322165,46.413633,152.32253)"
       x1="27.51181"
       y1="218.70093"
       x2="34.966385"
       y2="225.83942" />
  </defs>
  <g
     inkscape:label="Capa 1"
     inkscape:groupmode="layer"
     id="layer1"
     transform="translate(-54.730596,-226.84028)">
    <text
       xml:space="preserve"
       style="font-weight:bold;font-size:32.7291px;line-height:0px;font-family:'Bricolage Grotesque';-inkscape-font-specification:'Bricolage Grotesque Bold';text-align:end;letter-spacing:0px;word-spacing:-1.58439px;text-anchor:end;fill:#0066ff;stroke-width:3.27244"
       x="144.18565"
       y="266.30264"
       id="text80"
       inkscape:export-filename="logo.svg"
       inkscape:export-xdpi="96"
       inkscape:export-ydpi="96"><tspan
         sodipodi:role="line"
         id="tspan80"
         style="font-style:normal;font-variant:normal;font-weight:900;font-stretch:normal;font-size:32.7291px;font-family:Nunito;-inkscape-font-specification:'Nunito Heavy';stroke-width:3.27244"
         x="144.18565"
         y="266.30264">Daris</tspan></text>
    <path
       id="path86"
       style="fill:#d5e5ff;stroke-width:0.770242"
       d="m 65.842531,244.07564 c 0.516343,-0.0265 1.318057,0.76537 0.658585,0.99535 -1.771563,0.61783 -1.662603,2.5894 -1.449838,5.01784 0.03322,0.37922 -0.293729,0.68713 -0.658585,0.68713 -0.364856,0 -0.647848,-0.30661 -0.658585,-0.68713 -0.04806,-1.70335 -1.227041,-5.84227 2.108423,-6.01319 z"
       sodipodi:nodetypes="ssssss" />
    <path
       id="path87"
       style="fill:#d5e5ff;stroke-width:0.475137"
       d="m 89.541789,251.43412 c 0.366325,-0.14308 0.737818,0.28143 0.595727,0.49129 -0.539023,0.7961 -0.492799,1.34059 0,1.97306 0.146599,0.18815 -0.27742,0.56163 -0.595727,0.51412 -0.232589,-0.0347 -0.309393,-0.21263 -0.424486,-0.40567 -0.902709,-1.514 0.256803,-2.5073 0.424486,-2.5728 z"
       sodipodi:nodetypes="ssssss" />
    <path
       id="path88"
       style="fill:#d5e5ff;stroke-width:0.475137"
       d="m 108.70642,250.60806 c 0.38937,0.0552 0.50455,0.60746 0.27773,0.7205 -0.86048,0.42884 -1.08757,0.92587 -0.96883,1.71882 0.0353,0.23589 -0.51745,0.35304 -0.77142,0.15535 -0.18557,-0.14445 -0.16511,-0.33715 -0.17059,-0.56183 -0.043,-1.76217 1.45487,-2.05812 1.63311,-2.03284 z"
       sodipodi:nodetypes="ssssss" />
    <path
       id="path89"
       style="fill:#d5e5ff;stroke-width:0.475137"
       d="m 116.65857,250.58702 c 0.29399,0.26119 -0.0129,0.7532 -0.26477,0.72536 -0.77255,-0.0854 -1.33007,0.0801 -1.86036,0.6573 -0.16136,0.17565 -0.55917,-0.0288 -0.62042,-0.34477 -0.15107,-0.7785 2.17814,-1.542 2.74555,-1.03789 z"
       sodipodi:nodetypes="sssss" />
    <path
       id="path90"
       style="fill:#d5e5ff;stroke-width:0.475137"
       d="m 123.01474,242.3898 c 0.35908,0.16037 0.21486,0.72202 -0.0337,0.77144 -0.76233,0.15157 -1.244,0.47746 -1.57551,1.18775 -0.10088,0.21613 -0.54183,0.14116 -0.69551,-0.14161 -0.37882,-0.69669 1.61168,-2.1271 2.3047,-1.81758 z"
       sodipodi:nodetypes="sssss" />
    <path
       id="path91"
       style="fill:#d5e5ff;stroke-width:0.475137"
       d="m 123.67586,250.3576 c 0.35908,0.16037 0.21486,0.72203 -0.0337,0.77144 -0.76233,0.15158 -1.42582,-0.0523 -1.75246,1.23912 -0.058,0.22937 -0.75709,0.1971 -0.76971,-0.12448 -0.0686,-1.74831 1.60324,-2.15472 2.55585,-1.88608 1e-5,0 2e-5,0 2e-5,0 z"
       sodipodi:nodetypes="ssssss" />
    <path
       id="path92"
       style="fill:#d5e5ff;stroke-width:0.475137"
       d="m 133.19286,251.42102 c 0.37495,0.11857 0.29542,0.69297 0.0541,0.77028 -0.7402,0.23712 -1.18176,0.61557 -1.43052,1.35889 -0.0757,0.22618 -0.5223,0.20175 -0.70709,-0.0618 -0.45544,-0.64919 1.35985,-2.29627 2.08352,-2.06742 z"
       sodipodi:nodetypes="sssss" />
    <path
       id="path93"
       style="fill:#d5e5ff;stroke-width:0.475137"
       d="m 142.69755,260.86512 c -0.2614,0.80758 -0.84674,0.48331 -0.83877,0.0607 0.0146,-0.77712 -0.25859,-1.61131 -1.00951,-1.83611 -0.48256,-0.14447 -1.03087,-0.85219 0.16174,-0.78566 0.98091,0.0547 2.0013,1.58856 1.68654,2.56106 z"
       sodipodi:nodetypes="sssss" />
    <path
       id="path94"
       style="fill:#d5e5ff;stroke-width:0.429273"
       d="m 89.663648,258.4627 c 0.319831,0.1513 0.274205,0.66226 0.04989,0.70046 -0.850939,0.1449 -1.175958,0.51708 -1.281524,1.23841 -0.0314,0.21458 -0.536614,0.16992 -0.70291,-0.0694 -0.121512,-0.17488 -0.05353,-0.3371 5.62e-4,-0.53401 0.424236,-1.54443 1.78758,-1.40471 1.933982,-1.33545 z"
       sodipodi:nodetypes="ssssss" />
    <text
       xml:space="preserve"
       style="font-weight:bold;font-size:41.147px;line-height:0px;font-family:'Bricolage Grotesque';-inkscape-font-specification:'Bricolage Grotesque Bold';text-align:end;letter-spacing:0px;word-spacing:-0.486906px;text-anchor:end;fill:#0066ff;stroke-width:1.00567"
       x="144.00699"
       y="276.79364"
       id="text94"><tspan
         sodipodi:role="line"
         id="tspan94"
         style="font-style:normal;font-variant:normal;font-weight:600;font-stretch:normal;font-size:8.22939px;font-family:'Bricolage Grotesque';-inkscape-font-specification:'Bricolage Grotesque Semi-Bold';fill:#1a1a1a;stroke-width:1.00567"
         x="144.00699"
         y="276.79364">Servicios de limpieza</tspan></text>
    <circle
       style="fill:url(#linearGradient96);fill-opacity:1;stroke:#037dff;stroke-width:0.026;stroke-dasharray:none;stroke-opacity:0.376471"
       id="path95"
       cx="59.406876"
       cy="231.51656"
       r="4.663281" />
    <path
       id="path87-6"
       style="fill:#d5e5ff;stroke-width:0.537025"
       d="m 57.943907,227.87915 c 0.406574,0.12725 0.43109,0.79046 0.168288,0.88591 -0.996948,0.36213 -1.32865,0.90584 -1.343354,1.85073 -0.0044,0.2811 -0.616521,0.32886 -0.852819,0.0572 -0.172674,-0.19851 -0.116352,-0.42021 -0.08205,-0.68343 0.268939,-2.06425 1.923821,-2.16858 2.109938,-2.11038 z"
       sodipodi:nodetypes="ssssss" />
    <circle
       style="fill:url(#linearGradient97);fill-opacity:1;stroke:#0079ff;stroke-width:0.026;stroke-dasharray:none;stroke-opacity:0.462745"
       id="circle96"
       cx="66.750107"
       cy="237.39937"
       r="2.7923942" />
    <path
       id="path96"
       style="fill:#d5e5ff;stroke-width:0.321573"
       d="m 65.874075,235.22127 c 0.243458,0.0762 0.258139,0.47333 0.100772,0.53049 -0.596978,0.21684 -0.795602,0.54242 -0.804407,1.10823 -0.0026,0.16832 -0.369176,0.19692 -0.510672,0.0342 -0.103398,-0.11887 -0.06967,-0.25163 -0.04913,-0.40924 0.161042,-1.23609 1.151993,-1.29856 1.263441,-1.26371 z"
       sodipodi:nodetypes="ssssss" />
    <circle
       style="fill:url(#linearGradient98);fill-opacity:1;stroke:#0279ff;stroke-width:0.026;stroke-dasharray:none;stroke-opacity:0.462745"
       id="circle97"
       cx="58.96254"
       cy="241.97855"
       r="1.8803358" />
    <path
       id="path97"
       style="fill:#d5e5ff;stroke:none;stroke-width:0.026;stroke-dasharray:none;stroke-opacity:1"
       d="m 58.37264,240.51187 c 0.163939,0.0513 0.173825,0.31873 0.06786,0.35722 -0.401992,0.14601 -0.535741,0.36525 -0.54167,0.74626 -0.0018,0.11334 -0.248595,0.1326 -0.343875,0.023 -0.06963,-0.08 -0.04691,-0.16944 -0.03308,-0.27557 0.108442,-0.83235 0.775726,-0.87442 0.850773,-0.85095 z"
       sodipodi:nodetypes="ssssss" />
  </g>
</svg>
